<svg width="515" height="176" viewBox="0 0 515 176" fill="none" xmlns="http://www.w3.org/2000/svg">
<g clip-path="url(#clip0_10_2)">
<path d="M103.117 91.536C103.117 98.32 101.965 104.571 99.661 110.288C97.3997 115.963 94.1783 120.848 89.997 124.944C85.8583 129.04 80.8663 132.24 75.021 134.544C69.1757 136.848 62.6903 138 55.565 138H19.853V45.136H55.565C62.6903 45.136 69.1757 46.288 75.021 48.592C80.8663 50.896 85.8583 54.1173 89.997 58.256C94.1783 62.352 97.3997 67.2373 99.661 72.912C101.965 78.5867 103.117 84.7947 103.117 91.536ZM83.405 91.536C83.405 86.672 82.765 82.2987 81.485 78.416C80.205 74.5333 78.3703 71.248 75.981 68.56C73.5917 65.872 70.669 63.8027 67.213 62.352C63.7997 60.9013 59.917 60.176 55.565 60.176H39.181V122.96H55.565C59.917 122.96 63.7997 122.256 67.213 120.848C70.669 119.397 73.5917 117.328 75.981 114.64C78.3703 111.909 80.205 108.603 81.485 104.72C82.765 100.837 83.405 96.4427 83.405 91.536ZM161.555 79.696C162.878 78.416 164.243 77.2427 165.651 76.176C167.102 75.1093 168.616 74.192 170.195 73.424C171.816 72.656 173.544 72.0587 175.379 71.632C177.256 71.2053 179.283 70.992 181.459 70.992C185.043 70.992 188.222 71.6107 190.995 72.848C193.768 74.0853 196.094 75.8133 197.971 78.032C199.891 80.2507 201.32 82.896 202.259 85.968C203.24 89.04 203.731 92.4107 203.731 96.08V138H186.131V96.08C186.131 92.4107 185.278 89.5733 183.571 87.568C181.864 85.52 179.347 84.496 176.019 84.496C173.544 84.496 171.219 85.0293 169.043 86.096C166.867 87.1627 164.798 88.656 162.835 90.576V138H145.171V72.016H156.051C158.27 72.016 159.742 73.04 160.467 75.088L161.555 79.696ZM259.652 97.232C259.652 95.3973 259.396 93.648 258.884 91.984C258.415 90.32 257.647 88.848 256.58 87.568C255.513 86.288 254.169 85.2853 252.548 84.56C250.927 83.792 248.985 83.408 246.724 83.408C242.5 83.408 239.193 84.6027 236.804 86.992C234.415 89.3813 232.857 92.7947 232.132 97.232H259.652ZM231.876 107.728C232.431 113.915 234.18 118.437 237.124 121.296C240.111 124.155 243.993 125.584 248.772 125.584C251.204 125.584 253.295 125.307 255.044 124.752C256.836 124.155 258.393 123.515 259.716 122.832C261.081 122.107 262.297 121.467 263.364 120.912C264.473 120.315 265.561 120.016 266.628 120.016C267.993 120.016 269.06 120.528 269.828 121.552L274.948 127.952C273.071 130.128 271.001 131.941 268.74 133.392C266.479 134.8 264.132 135.931 261.7 136.784C259.268 137.595 256.815 138.149 254.34 138.448C251.865 138.789 249.476 138.96 247.172 138.96C242.564 138.96 238.255 138.213 234.244 136.72C230.276 135.184 226.799 132.944 223.812 130C220.868 127.013 218.543 123.323 216.836 118.928C215.129 114.533 214.276 109.435 214.276 103.632C214.276 99.152 215.001 94.928 216.452 90.96C217.945 86.992 220.079 83.536 222.852 80.592C225.625 77.648 228.996 75.3227 232.964 73.616C236.932 71.8667 241.412 70.992 246.404 70.992C250.628 70.992 254.511 71.6747 258.052 73.04C261.636 74.3627 264.708 76.304 267.268 78.864C269.871 81.424 271.876 84.5813 273.284 88.336C274.735 92.048 275.46 96.2933 275.46 101.072C275.46 102.395 275.396 103.483 275.268 104.336C275.14 105.189 274.927 105.872 274.628 106.384C274.329 106.896 273.924 107.259 273.412 107.472C272.9 107.643 272.239 107.728 271.428 107.728H231.876ZM320.917 110.416C316.608 110.629 313.024 111.013 310.165 111.568C307.306 112.08 305.024 112.763 303.317 113.616C301.653 114.469 300.458 115.451 299.733 116.56C299.05 117.627 298.709 118.8 298.709 120.08C298.709 122.64 299.413 124.453 300.821 125.52C302.272 126.587 304.277 127.12 306.837 127.12C309.781 127.12 312.32 126.608 314.453 125.584C316.629 124.517 318.784 122.875 320.917 120.656V110.416ZM284.949 81.168C288.832 77.6693 293.12 75.0667 297.813 73.36C302.506 71.6107 307.584 70.736 313.045 70.736C316.97 70.736 320.469 71.376 323.541 72.656C326.656 73.936 329.28 75.728 331.413 78.032C333.589 80.2933 335.253 83.0027 336.405 86.16C337.557 89.3173 338.133 92.7733 338.133 96.528V138H330.069C328.405 138 327.125 137.765 326.229 137.296C325.376 136.827 324.672 135.845 324.117 134.352L322.709 130.128C321.045 131.579 319.424 132.859 317.845 133.968C316.309 135.077 314.709 136.016 313.045 136.784C311.381 137.509 309.589 138.064 307.669 138.448C305.792 138.832 303.68 139.024 301.333 139.024C298.432 139.024 295.786 138.64 293.397 137.872C291.008 137.104 288.938 135.973 287.189 134.48C285.482 132.944 284.16 131.045 283.221 128.784C282.282 126.523 281.813 123.92 281.813 120.976C281.813 118.544 282.432 116.112 283.669 113.68C284.906 111.248 287.018 109.051 290.005 107.088C293.034 105.083 297.045 103.44 302.037 102.16C307.072 100.837 313.365 100.091 320.917 99.92V96.528C320.917 92.3893 320.042 89.36 318.293 87.44C316.544 85.4773 314.026 84.496 310.741 84.496C308.309 84.496 306.282 84.7947 304.661 85.392C303.04 85.9467 301.61 86.5653 300.373 87.248C299.178 87.888 298.048 88.5067 296.981 89.104C295.914 89.6587 294.677 89.936 293.269 89.936C292.032 89.936 290.986 89.6373 290.133 89.04C289.322 88.4 288.64 87.6533 288.085 86.8L284.949 81.168ZM368.497 82.896C370.588 79.1413 372.998 76.176 375.729 74C378.46 71.824 381.66 70.736 385.329 70.736C388.316 70.736 390.748 71.44 392.625 72.848L391.473 85.904C391.26 86.7573 390.918 87.3547 390.449 87.696C390.022 87.9947 389.425 88.144 388.657 88.144C387.974 88.144 386.993 88.0587 385.713 87.888C384.433 87.6747 383.238 87.568 382.129 87.568C380.508 87.568 379.057 87.8027 377.777 88.272C376.54 88.7413 375.43 89.4027 374.449 90.256C373.468 91.1093 372.572 92.1547 371.761 93.392C370.993 94.6293 370.268 96.0373 369.585 97.616V138H351.921V72.016H362.353C364.145 72.016 365.382 72.336 366.065 72.976C366.748 73.616 367.238 74.7253 367.537 76.304L368.497 82.896Z" fill="white"/>
<path d="M121.997 66L124.659 62.4722C127.437 58.7454 136.5 46.048 136.5 39.1065C136.501 30.0704 130.674 24 122 24C113.326 24 107.5 30.0704 107.5 39.1065C107.5 46.5823 118.143 60.8746 119.354 62.4756L121.997 66ZM112.843 39.1992C112.843 34.0993 116.951 29.949 122 29.949C127.05 29.949 131.158 34.0993 131.158 39.1992C131.158 44.2999 127.05 48.4495 122 48.4495C116.951 48.4495 112.843 44.3007 112.843 39.1992Z" fill="#9D0303"/>
<rect x="113.5" y="72" width="17.5" height="66" fill="white"/>
<path d="M409 65.9815C409 59.9153 413.923 55 420.007 55H420.141H420.275H420.409H420.542H420.676H420.809H420.943H421.076H421.209H421.341H421.474H421.607H421.739H421.872H422.004H422.136H422.268H422.4H422.532H422.663H422.795H422.926H423.057H423.189H423.32H423.451H423.581H423.712H423.843H423.973H424.103H424.234H424.364H424.494H424.624H424.753H424.883H425.013H425.142H425.272H425.401H425.53H425.659H425.788H425.917H426.045H426.174H426.302H426.431H426.559H426.687H426.815H426.943H427.071H427.199H427.326H427.454H427.582H427.709H427.836H427.963H428.09H428.217H428.344H428.471H428.598H428.724H428.851H428.977H429.103H429.229H429.356H429.482H429.608H429.733H429.859H429.985H430.11H430.236H430.361H430.486H430.612H430.737H430.862H430.987H431.111H431.236H431.361H431.485H431.61H431.734H431.859H431.983H432.107H432.231H432.355H432.479H432.603H432.727H432.85H432.974H433.098H433.221H433.344H433.468H433.591H433.714H433.837H433.96H434.083H434.206H434.329H434.451H434.574H434.697H434.819H434.942H435.064H435.186H435.308H435.43H435.553H435.675H435.796H435.918H436.04H436.162H436.284H436.405H436.527H436.648H436.77H436.891H437.012H437.133H437.255H437.376H437.497H437.618H437.739H437.86H437.98H438.101H438.222H438.342H438.463H438.584H438.704H438.824H438.945H439.065H439.185H439.306H439.426H439.546H439.666H439.786H439.906H440.026H440.146H440.265H440.385H440.505H440.625H440.744H440.864H440.983H441.103H441.222H441.342H441.461H441.58H441.699H441.819H441.938H442.057H442.176H442.295H442.414H442.533H442.652H442.771H442.89H443.009H443.127H443.246H443.365H443.484H443.602H443.721H443.839H443.958H444.077H444.195H444.313H444.432H444.55H444.669H444.787H444.905H445.024H445.142H445.26H445.378H445.496H445.615H445.733H445.851H445.969H446.087H446.205H446.323H446.441H446.559H446.677H446.795H446.913H447.03H447.148H447.266H447.384H447.502H447.62H447.737H447.855H447.973H448.09H448.208H448.326H448.444H448.561H448.679H448.797H448.914H449.032H449.149H449.267H449.385H449.502H449.62H449.737H449.855H449.972H450.09H450.207H450.325H450.442H450.56H450.677H450.795H450.912H451.03H451.147H451.265H451.382H451.5H451.617H451.735H451.852H451.97H452.087H452.205H452.323H452.44H452.558H452.675H452.793H452.91H453.028H453.145H453.263H453.38H453.498H453.615H453.733H453.851H453.968H454.086H454.203H454.321H454.439H454.556H454.674H454.792H454.91H455.027H455.145H455.263H455.38H455.498H455.616H455.734H455.852H455.97H456.087H456.205H456.323H456.441H456.559H456.677H456.795H456.913H457.031H457.149H457.267H457.385H457.504H457.622H457.74H457.858H457.976H458.095H458.213H458.331H458.45H458.568H458.687H458.805H458.923H459.042H459.161H459.279H459.398H459.516H459.635H459.754H459.873H459.991H460.11H460.229H460.348H460.467H460.586H460.705H460.824H460.943H461.062H461.181H461.301H461.42H461.539H461.658H461.778H461.897H462.017H462.136H462.256H462.375H462.495H462.615H462.735H462.854H462.974H463.094H463.214H463.334H463.454H463.574H463.694H463.815H463.935H464.055H464.176H464.296H464.416H464.537H464.658H464.778H464.899H465.02H465.14H465.261H465.382H465.503H465.624H465.745H465.867H465.988H466.109H466.23H466.352H466.473H466.595H466.716H466.838H466.96H467.082H467.203H467.325H467.447H467.57H467.692H467.814H467.936H468.058H468.181H468.303H468.426H468.549H468.671H468.794H468.917H469.04H469.163H469.286H469.409H469.532H469.656H469.779H469.902H470.026H470.15H470.273H470.397H470.521H470.645H470.769H470.893H471.017H471.141H471.266H471.39H471.515H471.639H471.764H471.889H472.013H472.138H472.263H472.388H472.514H472.639H472.764H472.89H473.015H473.141H473.267H473.392H473.518H473.644H473.771H473.897H474.023H474.149H474.276H474.402H474.529H474.656H474.783H474.91H475.037H475.164H475.291H475.418H475.546H475.674H475.801H475.929H476.057H476.185H476.313H476.441H476.569H476.698H476.826H476.955H477.083H477.212H477.341H477.47H477.599H477.728H477.858H477.987H478.117H478.247H478.376H478.506H478.636H478.766H478.897H479.027H479.157H479.288H479.419H479.549H479.68H479.811H479.943H480.074H480.205H480.337H480.468H480.6H480.732H480.864H480.996H481.128H481.261H481.393H481.526H481.659H481.791H481.924H482.057H482.191H482.324H482.458H482.591H482.725H482.859H482.993C489.07 55 494 59.9274 494 66V129C494 135.075 489.075 140 483 140H420C413.924 140 409 135.078 409 129.004V128.874V128.744V128.614V128.484V128.354V128.224V128.094V127.964V127.834V127.703V127.573V127.442V127.312V127.181V127.051V126.92V126.789V126.658V126.527V126.396V126.265V126.134V126.003V125.872V125.741V125.609V125.478V125.346V125.215V125.083V124.952V124.82V124.688V124.557V124.425V124.293V124.161V124.029V123.897V123.765V123.633V123.501V123.368V123.236V123.104V122.971V122.839V122.707V122.574V122.441V122.309V122.176V122.044V121.911V121.778V121.645V121.513V121.38V121.247V121.114V120.981V120.848V120.715V120.582V120.449V120.315V120.182V120.049V119.916V119.783V119.649V119.516V119.382V119.249V119.116V118.982V118.849V118.715V118.582V118.448V118.314V118.181V118.047V117.913V117.78V117.646V117.512V117.378V117.245V117.111V116.977V116.843V116.709V116.575V116.441V116.308V116.174V116.04V115.906V115.772V115.638V115.504V115.37V115.236V115.102V114.967V114.833V114.699V114.565V114.431V114.297V114.163V114.029V113.895V113.76V113.626V113.492V113.358V113.224V113.09V112.955V112.821V112.687V112.553V112.419V112.285V112.15V112.016V111.882V111.748V111.614V111.48V111.345V111.211V111.077V110.943V110.809V110.675V110.54V110.406V110.272V110.138V110.004V109.87V109.736V109.602V109.468V109.334V109.2V109.066V108.932V108.798V108.664V108.53V108.396V108.262V108.128V107.994V107.86V107.726V107.593V107.459V107.325V107.191V107.057V106.924V106.79V106.656V106.523V106.389V106.255V106.122V105.988V105.855V105.721V105.588V105.454V105.321V105.188V105.054V104.921V104.788V104.654V104.521V104.388V104.255V104.122V103.989V103.856V103.723V103.59V103.457V103.324V103.191V103.058V102.925V102.793V102.66V102.527V102.395V102.262V102.129V101.997V101.865V101.732V101.6V101.467V101.335V101.203V101.071V100.939V100.807V100.675V100.543V100.411V100.279V100.147V100.015V99.8836V99.7519V99.6203V99.4888V99.3573V99.2258V99.0944V98.9631V98.8318V98.7006V98.5695V98.4384V98.3074V98.1764V98.0455V97.9146V97.7838V97.6531V97.5224V97.3918V97.2613V97.1308V97.0004V96.8701V96.7398V96.6096V96.4795V96.3494V96.2194V96.0895V95.9596V95.8298V95.7001V95.5704V95.4409V95.3114V95.1819V95.0526V94.9233V94.7941V94.6649V94.5359V94.4069V94.278V94.1492V94.0204V93.8918V93.7632V93.6347V93.5062V93.3779V93.2496V93.1215V92.9934V92.8653V92.7374V92.6096V92.4818V92.3541V92.2265V92.099V91.9716V91.8443V91.7171V91.5899V91.4629V91.3359V91.209V91.0822V90.9556V90.829V90.7024V90.576V90.4497V90.3235V90.1974V90.0713V89.9454V89.8196V89.6938V89.5682V89.4426V89.3172V89.1919V89.0666V88.9415V88.8164V88.6915V88.5667V88.4419V88.3173V88.1928V88.0684V87.9441V87.8199V87.6958V87.5718V87.4479V87.3241V87.2005V87.0769V86.9535V86.8302V86.7069V86.5838V86.4608V86.338V86.2152V86.0925V85.97V85.8476V85.7253V85.6031V85.481V85.359V85.2372V85.1155V84.9939V84.8724V84.7511V84.6298V84.5087V84.3877V84.2668V84.1461V84.0255V83.905V83.7846V83.6644V83.5443V83.4243V83.3044V83.1847V83.065V82.9456V82.8262V82.707V82.5879V82.469V82.3501V82.2314V82.1129V81.9945V81.8762V81.758V81.64V81.5221V81.4044V81.2868V81.1693V81.052V80.9348V80.8177V80.7008V80.584V80.4674V80.3509V80.2345V80.1183V80.0023V79.8863V79.7706V79.6549V79.5395V79.4241V79.3089V79.1939V79.079V78.9643V78.8497V78.7352V78.6209V78.5068V78.3928V78.2789V78.1652V78.0517V77.9383V77.8251V77.712V77.5991V77.4863V77.3737V77.2613V77.149V77.0369V76.9249V76.8131V76.7014V76.5899V76.4786V76.3674V76.2564V76.1456V76.0349V75.9244V75.814V75.7038V75.5938V75.484V75.3743V75.2648V75.1554V75.0462V74.9372V74.8284V74.7197V74.6112V74.5028V74.3947V74.2867V74.1789V74.0712V73.9638V73.8565V73.7494V73.6424V73.5356V73.4291V73.3226V73.2164V73.1104V73.0045V72.8988V72.7933V72.688V72.5828V72.4778V72.373V72.2684V72.164V72.0598V71.9557V71.8519V71.7482V71.6447V71.5414V71.4383V71.3354V71.2326V71.1301V71.0277V70.9256V70.8236V70.7218V70.6202V70.5188V70.4176V70.3166V70.2158V70.1152V70.0148V69.9145V69.8145V69.7147V69.615V69.5156V69.4164V69.3173V69.2185V69.1199V69.0214V68.9232V68.8252V68.7274V68.6298V68.5323V68.4351V68.3381V68.2413V68.1447V68.0484V67.9522V67.8562V67.7605V67.6649V67.5696V67.4744V67.3795V67.2848V67.1903V67.0961V67.002V66.9081V66.8145V66.7211V66.6279V66.5349V66.4421V66.3496V66.2572V66.1651V66.0732V65.9815Z" stroke="#0A9830" stroke-width="8"/>
<path d="M462.265 129.237L462.262 129.234L462.259 129.231C461.101 128.176 460.447 126.696 460.447 125.089V125.043L462.067 104.536L462.088 104.268L461.641 104.208C460.286 104.023 459.011 103.362 458.063 102.331C457.12 101.304 456.537 99.9461 456.537 98.4472V77.1336C456.537 74.0126 457.858 71.2091 459.968 69.1965C462.08 67.1821 464.926 66.0038 467.982 66C467.995 66.0036 468.045 66.0203 468.114 66.086C468.21 66.1772 468.284 66.3176 468.284 66.4767V66.5833V130.418C468.284 130.577 468.21 130.717 468.114 130.808C468.045 130.874 467.995 130.891 467.982 130.894H466.321C464.905 130.894 463.436 130.353 462.265 129.237Z" stroke="#0A9830" stroke-width="3"/>
<path d="M435.922 66L435 87.3826C435 91.0619 436.568 93.3549 439.104 93.5149L437.859 126.042C437.813 127.322 438.228 128.548 439.012 129.455C439.796 130.361 440.811 130.895 441.918 130.895C443.024 130.895 444.039 130.415 444.823 129.455C445.607 128.548 446.022 127.322 445.976 126.042L444.731 93.5149C447.267 93.3549 448.835 91.0619 448.835 87.3826L447.913 66.0533" stroke="#0A9830" stroke-width="3" stroke-linecap="round"/>
<path d="M440.119 66.4909V82.4879C440.119 82.6411 440.06 82.7775 439.982 82.8674C439.944 82.9118 439.907 82.9383 439.879 82.9521C439.866 82.9588 439.857 82.9619 439.851 82.9634C439.846 82.9647 439.843 82.9647 439.842 82.9647C439.842 82.9647 439.839 82.9647 439.834 82.9634C439.828 82.9619 439.818 82.9588 439.805 82.9521C439.778 82.9383 439.741 82.9118 439.702 82.8674C439.625 82.7775 439.566 82.6411 439.566 82.4879V66.4909C439.566 66.3377 439.625 66.2014 439.702 66.1114C439.741 66.067 439.778 66.0405 439.805 66.0267C439.818 66.02 439.828 66.0169 439.834 66.0155C439.839 66.0141 439.842 66.0141 439.842 66.0141C439.843 66.0141 439.846 66.0141 439.851 66.0155C439.857 66.0169 439.866 66.02 439.879 66.0267C439.907 66.0405 439.944 66.067 439.982 66.1114C440.06 66.2014 440.119 66.3377 440.119 66.4909Z" stroke="#0A9830" stroke-width="2"/>
<path d="M443.809 66.4909V82.4879C443.809 82.6411 443.75 82.7775 443.672 82.8674C443.633 82.9118 443.596 82.9383 443.569 82.9521C443.556 82.9588 443.546 82.9619 443.54 82.9634C443.535 82.9647 443.532 82.9647 443.532 82.9647C443.531 82.9647 443.529 82.9647 443.523 82.9634C443.518 82.9619 443.508 82.9588 443.495 82.9521C443.467 82.9383 443.43 82.9118 443.392 82.8674C443.314 82.7775 443.255 82.6411 443.255 82.4879V66.4909C443.255 66.3377 443.314 66.2014 443.392 66.1114C443.43 66.067 443.467 66.0405 443.495 66.0267C443.508 66.02 443.518 66.0169 443.523 66.0155C443.529 66.0141 443.531 66.0141 443.532 66.0141C443.532 66.0141 443.535 66.0141 443.54 66.0155C443.546 66.0169 443.556 66.02 443.569 66.0267C443.596 66.0405 443.633 66.067 443.672 66.1114C443.75 66.2014 443.809 66.3377 443.809 66.4909Z" stroke="#0A9830" stroke-width="2"/>
</g>
<defs>
<clipPath id="clip0_10_2">
<rect width="515" height="176" fill="white"/>
</clipPath>
</defs>
</svg>
