<svg width="93" height="93" viewBox="0 0 93 93" fill="none" xmlns="http://www.w3.org/2000/svg">
<path d="M4 14.9815C4 8.91535 8.9232 4 15.0073 4H15.1413H15.2751H15.4089H15.5425H15.676H15.8093H15.9426H16.0757H16.2086H16.3415H16.4742H16.6068H16.7393H16.8717H17.0039H17.136H17.268H17.3999H17.5316H17.6633H17.7948H17.9262H18.0574H18.1886H18.3196H18.4506H18.5814H18.7121H18.8426H18.9731H19.1034H19.2337H19.3638H19.4938H19.6237H19.7535H19.8832H20.0127H20.1422H20.2715H20.4008H20.5299H20.6589H20.7878H20.9166H21.0453H21.1739H21.3024H21.4307H21.559H21.6872H21.8153H21.9432H22.0711H22.1988H22.3265H22.4541H22.5815H22.7089H22.8361H22.9633H23.0903H23.2173H23.3442H23.4709H23.5976H23.7242H23.8506H23.977H24.1033H24.2295H24.3556H24.4816H24.6075H24.7333H24.8591H24.9847H25.1103H25.2357H25.3611H25.4864H25.6116H25.7367H25.8617H25.9866H26.1115H26.2362H26.3609H26.4855H26.61H26.7344H26.8587H26.983H27.1072H27.2313H27.3553H27.4792H27.603H27.7268H27.8505H27.9741H28.0976H28.2211H28.3445H28.4678H28.591H28.7141H28.8372H28.9602H29.0831H29.206H29.3287H29.4514H29.5741H29.6966H29.8191H29.9415H30.0639H30.1861H30.3083H30.4305H30.5526H30.6746H30.7965H30.9184H31.0402H31.1619H31.2836H31.4052H31.5267H31.6482H31.7696H31.891H32.0123H32.1335H32.2547H32.3758H32.4968H32.6178H32.7387H32.8596H32.9804H33.1012H33.2218H33.3425H33.4631H33.5836H33.7041H33.8245H33.9449H34.0652H34.1854H34.3056H34.4258H34.5459H34.6659H34.7859H34.9059H35.0258H35.1456H35.2654H35.3852H35.5049H35.6246H35.7442H35.8637H35.9833H36.1027H36.2222H36.3416H36.4609H36.5802H36.6995H36.8187H36.9379H37.057H37.1761H37.2952H37.4142H37.5331H37.6521H37.771H37.8899H38.0087H38.1275H38.2462H38.3649H38.4836H38.6023H38.7209H38.8395H38.958H39.0765H39.195H39.3135H39.4319H39.5503H39.6687H39.787H39.9053H40.0236H40.1418H40.26H40.3782H40.4964H40.6146H40.7327H40.8508H40.9688H41.0869H41.2049H41.3229H41.4409H41.5588H41.6768H41.7947H41.9126H42.0304H42.1483H42.2661H42.3839H42.5017H42.6195H42.7373H42.855H42.9728H43.0905H43.2082H43.3259H43.4436H43.5612H43.6789H43.7965H43.9141H44.0317H44.1494H44.2669H44.3845H44.5021H44.6197H44.7372H44.8548H44.9723H45.0899H45.2074H45.3249H45.4425H45.56H45.6775H45.795H45.9125H46.03H46.1475H46.265H46.3825H46.5H46.6175H46.735H46.8525H46.97H47.0875H47.205H47.3225H47.44H47.5575H47.6751H47.7926H47.9101H48.0277H48.1452H48.2628H48.3803H48.4979H48.6155H48.733H48.8506H48.9682H49.0859H49.2035H49.3211H49.4388H49.5564H49.6741H49.7918H49.9095H50.0272H50.145H50.2627H50.3805H50.4982H50.6161H50.7339H50.8517H50.9696H51.0874H51.2053H51.3232H51.4412H51.5591H51.6771H51.7951H51.9131H52.0312H52.1492H52.2673H52.3854H52.5036H52.6218H52.7399H52.8582H52.9764H53.0947H53.213H53.3313H53.4497H53.5681H53.6865H53.805H53.9235H54.042H54.1605H54.2791H54.3977H54.5164H54.6351H54.7538H54.8725H54.9913H55.1101H55.229H55.3479H55.4668H55.5858H55.7048H55.8239H55.943H56.0621H56.1813H56.3005H56.4198H56.5391H56.6584H56.7778H56.8972H57.0167H57.1362H57.2558H57.3754H57.4951H57.6148H57.7346H57.8544H57.9742H58.0941H58.2141H58.3341H58.4541H58.5742H58.6944H58.8146H58.9348H59.0551H59.1755H59.2959H59.4164H59.5369H59.6575H59.7781H59.8988H60.0196H60.1404H60.2613H60.3822H60.5032H60.6242H60.7453H60.8665H60.9877H61.109H61.2304H61.3518H61.4733H61.5948H61.7164H61.8381H61.9598H62.0816H62.2035H62.3254H62.4474H62.5695H62.6916H62.8139H62.9361H63.0585H63.1809H63.3034H63.4259H63.5486H63.6713H63.794H63.9169H64.0398H64.1628H64.2859H64.409H64.5322H64.6555H64.7789H64.9024H65.0259H65.1495H65.2732H65.397H65.5208H65.6447H65.7687H65.8928H66.017H66.1413H66.2656H66.39H66.5145H66.6391H66.7638H66.8885H67.0134H67.1383H67.2633H67.3884H67.5136H67.6389H67.7643H67.8897H68.0153H68.1409H68.2667H68.3925H68.5184H68.6444H68.7705H68.8967H69.023H69.1494H69.2758H69.4024H69.5291H69.6558H69.7827H69.9097H70.0367H70.1639H70.2911H70.4185H70.5459H70.6735H70.8012H70.9289H71.0568H71.1847H71.3128H71.441H71.5692H71.6976H71.8261H71.9547H72.0834H72.2122H72.3411H72.4701H72.5992H72.7285H72.8578H72.9873H73.1168H73.2465H73.3763H73.5062H73.6362H73.7663H73.8965H74.0269H74.1574H74.2879H74.4186H74.5494H74.6804H74.8114H74.9426H75.0738H75.2052H75.3367H75.4684H75.6001H75.732H75.864H75.9961H76.1283H76.2607H76.3932H76.5258H76.6585H76.7914H76.9243H77.0574H77.1907H77.324H77.4575H77.5911H77.7248H77.8587H77.9927C84.0704 4 89 8.9274 89 15V78C89 84.0751 84.0751 89 78 89H15C8.92358 89 4 84.0775 4 78.0037V77.874V77.7442V77.6143V77.4844V77.3543V77.2243V77.0941V76.9639V76.8336V76.7033V76.5729V76.4424V76.3119V76.1812V76.0506V75.9198V75.789V75.6582V75.5273V75.3963V75.2653V75.1341V75.003V74.8718V74.7405V74.6092V74.4778V74.3463V74.2148V74.0833V73.9517V73.82V73.6883V73.5565V73.4247V73.2928V73.1609V73.0289V72.8969V72.7648V72.6327V72.5005V72.3683V72.236V72.1037V71.9714V71.839V71.7065V71.574V71.4415V71.3089V71.1763V71.0436V70.9109V70.7782V70.6454V70.5126V70.3797V70.2468V70.1139V69.9809V69.8479V69.7148V69.5817V69.4486V69.3155V69.1823V69.049V68.9158V68.7825V68.6492V68.5158V68.3825V68.249V68.1156V67.9821V67.8486V67.7151V67.5816V67.448V67.3144V67.1807V67.0471V66.9134V66.7797V66.646V66.5122V66.3785V66.2447V66.1109V65.977V65.8432V65.7093V65.5754V65.4415V65.3076V65.1736V65.0397V64.9057V64.7717V64.6377V64.5037V64.3697V64.2356V64.1016V63.9675V63.8334V63.6993V63.5652V63.4311V63.297V63.1629V63.0287V62.8946V62.7605V62.6263V62.4921V62.358V62.2238V62.0896V61.9555V61.8213V61.6871V61.5529V61.4188V61.2846V61.1504V61.0162V60.882V60.7479V60.6137V60.4795V60.3453V60.2112V60.077V59.9429V59.8087V59.6746V59.5405V59.4063V59.2722V59.1381V59.004V58.8699V58.7358V58.6018V58.4677V58.3337V58.1997V58.0656V57.9316V57.7976V57.6637V57.5297V57.3958V57.2619V57.1279V56.9941V56.8602V56.7263V56.5925V56.4587V56.3249V56.1911V56.0574V55.9237V55.79V55.6563V55.5226V55.389V55.2554V55.1218V54.9883V54.8548V54.7213V54.5878V54.4544V54.321V54.1876V54.0542V53.9209V53.7876V53.6544V53.5212V53.388V53.2548V53.1217V52.9886V52.8556V52.7226V52.5896V52.4566V52.3237V52.1909V52.0581V51.9253V51.7925V51.6598V51.5272V51.3946V51.262V51.1295V50.997V50.8645V50.7321V50.5998V50.4675V50.3352V50.203V50.0708V49.9387V49.8066V49.6746V49.5427V49.4107V49.2789V49.147V49.0153V48.8836V48.7519V48.6203V48.4888V48.3573V48.2258V48.0944V47.9631V47.8318V47.7006V47.5695V47.4384V47.3074V47.1764V47.0455V46.9146V46.7838V46.6531V46.5224V46.3918V46.2613V46.1308V46.0004V45.8701V45.7398V45.6096V45.4795V45.3494V45.2194V45.0895V44.9596V44.8298V44.7001V44.5704V44.4409V44.3114V44.1819V44.0526V43.9233V43.7941V43.6649V43.5359V43.4069V43.278V43.1492V43.0204V42.8918V42.7632V42.6347V42.5062V42.3779V42.2496V42.1215V41.9934V41.8653V41.7374V41.6096V41.4818V41.3541V41.2265V41.099V40.9716V40.8443V40.7171V40.5899V40.4629V40.3359V40.209V40.0822V39.9556V39.829V39.7024V39.576V39.4497V39.3235V39.1974V39.0713V38.9454V38.8196V38.6938V38.5682V38.4426V38.3172V38.1919V38.0666V37.9415V37.8164V37.6915V37.5667V37.4419V37.3173V37.1928V37.0684V36.9441V36.8199V36.6958V36.5718V36.4479V36.3241V36.2005V36.0769V35.9535V35.8302V35.7069V35.5838V35.4608V35.338V35.2152V35.0925V34.97V34.8476V34.7253V34.6031V34.481V34.359V34.2372V34.1155V33.9939V33.8724V33.7511V33.6298V33.5087V33.3877V33.2668V33.1461V33.0255V32.905V32.7846V32.6644V32.5443V32.4243V32.3044V32.1847V32.065V31.9456V31.8262V31.707V31.5879V31.469V31.3501V31.2314V31.1129V30.9945V30.8762V30.758V30.64V30.5221V30.4044V30.2868V30.1693V30.052V29.9348V29.8177V29.7008V29.584V29.4674V29.3509V29.2345V29.1183V29.0023V28.8863V28.7706V28.6549V28.5395V28.4241V28.3089V28.1939V28.079V27.9643V27.8497V27.7352V27.6209V27.5068V27.3928V27.2789V27.1652V27.0517V26.9383V26.8251V26.712V26.5991V26.4863V26.3737V26.2613V26.149V26.0369V25.9249V25.8131V25.7014V25.5899V25.4786V25.3674V25.2564V25.1456V25.0349V24.9244V24.814V24.7038V24.5938V24.484V24.3743V24.2648V24.1554V24.0462V23.9372V23.8284V23.7197V23.6112V23.5028V23.3947V23.2867V23.1789V23.0712V22.9638V22.8565V22.7494V22.6424V22.5356V22.4291V22.3226V22.2164V22.1104V22.0045V21.8988V21.7933V21.688V21.5828V21.4778V21.373V21.2684V21.164V21.0598V20.9557V20.8519V20.7482V20.6447V20.5414V20.4383V20.3354V20.2326V20.1301V20.0277V19.9256V19.8236V19.7218V19.6202V19.5188V19.4176V19.3166V19.2158V19.1152V19.0148V18.9145V18.8145V18.7147V18.615V18.5156V18.4164V18.3173V18.2185V18.1199V18.0214V17.9232V17.8252V17.7274V17.6298V17.5323V17.4351V17.3381V17.2413V17.1447V17.0484V16.9522V16.8562V16.7605V16.6649V16.5696V16.4744V16.3795V16.2848V16.1903V16.0961V16.002V15.9081V15.8145V15.7211V15.6279V15.5349V15.4421V15.3496V15.2572V15.1651V15.0732V14.9815Z" stroke="#0A9830" stroke-width="8"/>
<path d="M57.2651 78.2366L57.2622 78.2336L57.2592 78.2308C56.1007 77.1761 55.4472 75.6956 55.4472 74.0892V74.0434L57.0669 53.5365L57.0878 53.2684L56.6414 53.2075C55.286 53.0228 54.0115 52.3625 53.0632 51.3306C52.1201 50.3045 51.5368 48.9461 51.5368 47.4472V26.1336C51.5368 23.0126 52.8577 20.2091 54.9678 18.1965C57.0797 16.1821 59.9259 15.0038 62.982 15C62.9949 15.0036 63.0452 15.0203 63.1142 15.086C63.2096 15.1772 63.2842 15.3176 63.2842 15.4767V15.5833V79.4177C63.2842 79.5768 63.2096 79.7172 63.1142 79.8084C63.0452 79.8742 62.9949 79.8908 62.982 79.8944H61.3209C59.9046 79.8944 58.4358 79.353 57.2651 78.2366Z" stroke="#0A9830" stroke-width="3"/>
<path d="M30.9224 15L30 36.3826C30 40.0619 31.568 42.3549 34.1045 42.5149L32.8593 75.0421C32.8132 76.3219 33.2282 77.5482 34.0122 78.4548C34.7962 79.3613 35.8108 79.8945 36.9177 79.8945C38.0245 79.8945 39.0391 79.4147 39.8231 78.4548C40.6071 77.5482 41.0221 76.3219 40.976 75.0421L39.7308 42.5149C42.2673 42.3549 43.8353 40.0619 43.8353 36.3826L42.913 15.0533" stroke="#0A9830" stroke-width="3" stroke-linecap="round"/>
<path d="M35.119 15.4909V31.4879C35.119 31.6411 35.06 31.7775 34.9822 31.8674C34.9439 31.9118 34.9067 31.9383 34.8795 31.9521C34.8663 31.9588 34.8567 31.9619 34.851 31.9634C34.8456 31.9647 34.843 31.9647 34.8423 31.9647C34.8417 31.9647 34.8391 31.9647 34.8337 31.9634C34.828 31.9619 34.8183 31.9588 34.8052 31.9521C34.7779 31.9383 34.7407 31.9118 34.7024 31.8674C34.6246 31.7775 34.5656 31.6411 34.5656 31.4879V15.4909C34.5656 15.3377 34.6246 15.2014 34.7024 15.1114C34.7407 15.067 34.7779 15.0405 34.8052 15.0267C34.8183 15.02 34.828 15.0169 34.8337 15.0155C34.8391 15.0141 34.8417 15.0141 34.8423 15.0141C34.843 15.0141 34.8456 15.0141 34.851 15.0155C34.8567 15.0169 34.8663 15.02 34.8795 15.0267C34.9067 15.0405 34.9439 15.067 34.9822 15.1114C35.06 15.2014 35.119 15.3377 35.119 15.4909Z" stroke="#0A9830" stroke-width="2"/>
<path d="M38.8085 15.4909V31.4879C38.8085 31.6411 38.7495 31.7775 38.6718 31.8674C38.6334 31.9118 38.5963 31.9383 38.569 31.9521C38.5558 31.9588 38.5462 31.9619 38.5405 31.9634C38.5351 31.9647 38.5325 31.9647 38.5318 31.9647C38.5312 31.9647 38.5286 31.9647 38.5232 31.9634C38.5175 31.9619 38.5078 31.9588 38.4947 31.9521C38.4674 31.9383 38.4303 31.9118 38.3919 31.8674C38.3141 31.7775 38.2551 31.6411 38.2551 31.4879V15.4909C38.2551 15.3377 38.3141 15.2014 38.3919 15.1114C38.4303 15.067 38.4674 15.0405 38.4947 15.0267C38.5078 15.02 38.5175 15.0169 38.5232 15.0155C38.5286 15.0141 38.5312 15.0141 38.5318 15.0141C38.5325 15.0141 38.5351 15.0141 38.5405 15.0155C38.5462 15.0169 38.5558 15.02 38.569 15.0267C38.5963 15.0405 38.6334 15.067 38.6718 15.1114C38.7495 15.2014 38.8085 15.3377 38.8085 15.4909Z" stroke="#0A9830" stroke-width="2"/>
</svg>
